<svg data-name="Layer 1" xmlns="http://www.w3.org/2000/svg" width="64" height="64"><path d="M35.96 0a20.42 20.42 0 00-20 16 16 16 0 00-16 16 15.4 15.4 0 004.27 10.72A11.88 11.88 0 0111.96 40a10.51 10.51 0 014.47 1 12 12 0 0111.53-9 12.06 12.06 0 0111.51 9 11.84 11.84 0 014.49-1 11.94 11.94 0 0111 7.52 12.07 12.07 0 009-11.52c0-5.2-3.36-10.32-8-12v-4a20 20 0 00-20-20zm-9.27 40a4 4 0 00-2.73 4v16a4 4 0 108 0V44a4 4 0 00-4.71-4h-.56zm-16 8a4 4 0 00-2.73 4v8a4 4 0 108 0v-8a4 4 0 00-4.71-4h-.54zm32 0a4 4 0 00-2.73 4v8a4 4 0 108 0v-8a4 4 0 00-4.71-4h-.58z" fill="#d4953f"/></svg>